{"title":"Woodstock 1970 Directors Cut + Bonus - Idiocracy","uid":12659203,"size":3905642654,"categoryP":"video","categoryS":"music_videos","magnet":"?xt=urn:btih:e1b5f17f8f13e89f2a6747d3d7cc5b73713b203f&amp;dn=Woodstock+1970+Directors+Cut+%2B+Bonus+-+Idiocracy&amp;tr=udp%3A%2F%2Ftracker.leechers-paradise.org%3A6969&amp;tr=udp%3A%2F%2Fzer0day.ch%3A1337&amp;tr=udp%3A%2F%2Fopen.demonii.com%3A1337&amp;tr=udp%3A%2F%2Ftracker.coppersurfer.tk%3A6969&amp;tr=udp%3A%2F%2Fexodus.desync.com%3A6969","seeders":1,"leechers":2,"uploader":"Satafakap","files":28,"time":1446276811,"description":"Synopsis / Plot\r\n\r\nThe film chronicle of the legendary 1969 music festival.\r\n\r\nDirector: Michael Wadleigh\r\nStars: Joan Baez, Richie Havens, Roger Daltrey\r\n \nhttp://www.imdb.com/title/tt0066580/\r\n\r\nGeneral\r\n\r\nComplete name       : Woodstock.1970.Directors.Cut.BRRip.XviD.MP3-Idiocracy.avi\r\nFile size           : 1.36 GiB\r\nDuration            : 3h 44mn\r\nOverall bit rate    : 868 Kbps\r\nSource              : Woodstock.Directors.Cut.1970.720p.BluRay.x264-VOA - Thanks!\r\nSample              : Yes\r\n\r\nVideo\r\n\r\nDuration                                 : 3h 44mn\r\nBit rate                                 : 731 Kbps\r\nWidth                                    : 640 pixels\r\nHeight                                   : 264 pixels\r\nDisplay aspect ratio                     : 2.40:1\r\nFrame rate                               : 23.976 fps\r\nBits/(Pixel*Frame)                       : 0.180\r\nStream size                              : 1.14 GiB (84%)\r\n\r\nAudio\r\n\r\nCodec ID/Hint                            : MP3\r\nDuration                                 : 3h 44mn\r\nBit rate mode                            : Constant\r\nBit rate                                 : 128 Kbps\r\nChannel(s)                               : 2 channels\r\nSampling rate                            : 48.0 KHz\r\nStream size                              : 205 MiB (15%)\r\n\r\nScreenshots:\r\n \nhttp://i.imgur.com/kFS3aWq.jpg\r\n \nhttp://i.imgur.com/YdL4qZt.jpg\r\n \nhttp://i.imgur.com/zwj9vWn.jpg\r\n \nhttp://i.imgur.com/jE8Rah5.jpg\r\n \nhttp://i.imgur.com/E4KuERV.jpg\r\n\r\n_________________________________________\r\n\r\nGeneral\r\n\r\nComplete name       : Woodstock.1970.Bonus.1.DVDRip.XviD.MP3-Idiocracy.avi\r\nFile size           : 1.45 GiB\r\nDuration            : 2h 52mn\r\nOverall bit rate    : 1 202 Kbps\r\nSource              : Woodstock - 3 Days of Peace &amp; Music + Dir Cut Bonus 4 DVDRips MultiSub - Thanks!\r\nSample              : Yes\r\n\r\nVideo\r\n\r\nDuration                                 : 2h 52mn\r\nBit rate                                 : 1 064 Kbps\r\nWidth                                    : 640 pixels\r\nHeight                                   : 480 pixels\r\nDisplay aspect ratio                     : 4:3\r\nFrame rate                               : 25.000 fps\r\nBits/(Pixel*Frame)                       : 0.139\r\nStream size                              : 1.28 GiB (89%)\r\n\r\nAudio\r\n\r\nCodec ID/Hint                            : MP3\r\nDuration                                 : 2h 52mn\r\nBit rate mode                            : Constant\r\nBit rate                                 : 128 Kbps\r\nChannel(s)                               : 2 channels\r\nSampling rate                            : 48.0 KHz\r\nStream size                              : 158 MiB (11%)\r\n\r\nScreenshots:\r\n \nhttp://i.imgur.com/bvHFSQA.jpg\r\n \nhttp://i.imgur.com/etebETb.jpg\r\n \nhttp://i.imgur.com/2ZMeMhs.jpg\r\n \nhttp://i.imgur.com/0zgcalG.jpg\r\n \nhttp://i.imgur.com/rkr0skg.jpg\r\n\r\n_________________________________________\r\n\r\nGeneral\r\n\r\nComplete name       : Woodstock.1970.Bonus.2.DVDRip.XviD.MP3-Idiocracy.avi\r\nFile size           : 809 MiB\r\nDuration            : 1h 41mn\r\nOverall bit rate    : 1 113 Kbps\r\nSource              : Woodstock - 3 Days of Peace &amp; Music + Dir Cut Bonus 4 DVDRips MultiSub - Thanks!\r\nSample              : Yes\r\n\r\nVideo\r\n\r\nDuration                                 : 1h 41mn\r\nBit rate                                 : 975 Kbps\r\nWidth                                    : 640 pixels\r\nHeight                                   : 344 pixels\r\nDisplay aspect ratio                     : 1.85:1\r\nFrame rate                               : 25.000 fps\r\nBits/(Pixel*Frame)                       : 0.177\r\nStream size                              : 709 MiB (88%)\r\n\r\nAudio\r\n\r\nCodec ID/Hint                            : MP3\r\nDuration                                 : 1h 41mn\r\nBit rate mode                            : Constant\r\nBit rate                                 : 128 Kbps\r\nChannel(s)                               : 2 channels\r\nSampling rate                            : 48.0 KHz\r\nStream size                              : 93.0 MiB (11%)\r\n\r\nScreenshots:\r\n \nhttp://i.imgur.com/FUBQAnd.jpg\r\n \nhttp://i.imgur.com/5OJV8Be.jpg\r\n \nhttp://i.imgur.com/CM5RAR1.jpg\r\n \nhttp://i.imgur.com/Gq2Ivnu.jpg\r\n \nhttp://i.imgur.com/8p8m5pr.jpg","torrent":{"xt":"urn:btih:e1b5f17f8f13e89f2a6747d3d7cc5b73713b203f","amp;dn":"Woodstock+1970+Directors+Cut+%2B+Bonus+-+Idiocracy","amp;tr":["udp%3A%2F%2Ftracker.leechers-paradise.org%3A6969","udp%3A%2F%2Fzer0day.ch%3A1337","udp%3A%2F%2Fopen.demonii.com%3A1337","udp%3A%2F%2Ftracker.coppersurfer.tk%3A6969","udp%3A%2F%2Fexodus.desync.com%3A6969"],"infoHash":"e1b5f17f8f13e89f2a6747d3d7cc5b73713b203f","infoHashBuffer":{"type":"Buffer","data":[225,181,241,127,143,19,232,159,42,103,71,211,215,204,91,115,113,59,32,63]},"announce":[],"urlList":[]}}